<mxfile host="app.diagrams.net" agent="Mozilla/5.0 (Windows NT 10.0; Win64; x64) AppleWebKit/537.36 (KHTML, like Gecko) Chrome/136.0.0.0 Safari/537.36" version="27.0.5">
  <diagram name="Página-1" id="SPaCpLOKnH1n7rKFPVCR">
    <mxGraphModel grid="1" page="1" gridSize="10" guides="1" tooltips="1" connect="1" arrows="1" fold="1" pageScale="1" pageWidth="827" pageHeight="1169" math="0" shadow="0">
      <root>
        <mxCell id="0" />
        <mxCell id="1" parent="0" />
        <mxCell id="dwrPpuVWPX9B_x9vy6d8-1" value="" style="ellipse;html=1;shape=startState;" vertex="1" parent="1">
          <mxGeometry x="310" y="40" width="30" height="30" as="geometry" />
        </mxCell>
        <mxCell id="dwrPpuVWPX9B_x9vy6d8-2" value="" style="edgeStyle=orthogonalEdgeStyle;html=1;verticalAlign=bottom;endArrow=open;endSize=8;rounded=0;" edge="1" parent="1" source="dwrPpuVWPX9B_x9vy6d8-1">
          <mxGeometry relative="1" as="geometry">
            <mxPoint x="325" y="130" as="targetPoint" />
          </mxGeometry>
        </mxCell>
        <mxCell id="dwrPpuVWPX9B_x9vy6d8-3" value="Obtener Estado Actual" style="rounded=1;whiteSpace=wrap;html=1;arcSize=40;" vertex="1" parent="1">
          <mxGeometry x="265" y="130" width="120" height="40" as="geometry" />
        </mxCell>
        <mxCell id="dwrPpuVWPX9B_x9vy6d8-4" value="" style="edgeStyle=orthogonalEdgeStyle;html=1;verticalAlign=bottom;endArrow=open;endSize=8;rounded=0;" edge="1" parent="1" source="dwrPpuVWPX9B_x9vy6d8-3">
          <mxGeometry relative="1" as="geometry">
            <mxPoint x="325" y="230" as="targetPoint" />
          </mxGeometry>
        </mxCell>
        <mxCell id="dwrPpuVWPX9B_x9vy6d8-5" value="Mostrar información&lt;div&gt;Actual del Estado&lt;/div&gt;" style="rounded=1;whiteSpace=wrap;html=1;arcSize=40;" vertex="1" parent="1">
          <mxGeometry x="265" y="230" width="120" height="40" as="geometry" />
        </mxCell>
        <mxCell id="dwrPpuVWPX9B_x9vy6d8-6" value="" style="edgeStyle=orthogonalEdgeStyle;html=1;verticalAlign=bottom;endArrow=open;endSize=8;rounded=0;" edge="1" parent="1" source="dwrPpuVWPX9B_x9vy6d8-5">
          <mxGeometry relative="1" as="geometry">
            <mxPoint x="325" y="330" as="targetPoint" />
          </mxGeometry>
        </mxCell>
        <mxCell id="dwrPpuVWPX9B_x9vy6d8-7" value="Obtener Información&lt;div&gt;Actual&lt;/div&gt;" style="rounded=1;whiteSpace=wrap;html=1;arcSize=40;" vertex="1" parent="1">
          <mxGeometry x="265" y="330" width="120" height="40" as="geometry" />
        </mxCell>
        <mxCell id="dwrPpuVWPX9B_x9vy6d8-8" value="" style="edgeStyle=orthogonalEdgeStyle;html=1;verticalAlign=bottom;endArrow=open;endSize=8;rounded=0;" edge="1" parent="1" source="dwrPpuVWPX9B_x9vy6d8-7">
          <mxGeometry relative="1" as="geometry">
            <mxPoint x="325" y="430" as="targetPoint" />
          </mxGeometry>
        </mxCell>
        <mxCell id="dwrPpuVWPX9B_x9vy6d8-9" value="Falla&amp;nbsp;&lt;div&gt;Detectada&lt;/div&gt;" style="rhombus;whiteSpace=wrap;html=1;" vertex="1" parent="1">
          <mxGeometry x="285" y="430" width="80" height="80" as="geometry" />
        </mxCell>
        <mxCell id="dwrPpuVWPX9B_x9vy6d8-10" value="No" style="edgeStyle=orthogonalEdgeStyle;html=1;align=left;verticalAlign=bottom;endArrow=open;endSize=8;rounded=0;" edge="1" parent="1" source="dwrPpuVWPX9B_x9vy6d8-9">
          <mxGeometry x="-0.7938" relative="1" as="geometry">
            <mxPoint x="450" y="520" as="targetPoint" />
            <Array as="points">
              <mxPoint x="451" y="470" />
            </Array>
            <mxPoint as="offset" />
          </mxGeometry>
        </mxCell>
        <mxCell id="dwrPpuVWPX9B_x9vy6d8-11" value="Si" style="edgeStyle=orthogonalEdgeStyle;html=1;align=left;verticalAlign=top;endArrow=open;endSize=8;rounded=0;exitX=0;exitY=0.5;exitDx=0;exitDy=0;" edge="1" parent="1" source="dwrPpuVWPX9B_x9vy6d8-9">
          <mxGeometry x="-0.2903" y="-20" relative="1" as="geometry">
            <mxPoint x="180" y="520" as="targetPoint" />
            <Array as="points">
              <mxPoint x="180" y="470" />
            </Array>
            <mxPoint as="offset" />
          </mxGeometry>
        </mxCell>
        <mxCell id="dwrPpuVWPX9B_x9vy6d8-14" value="Alertar Al sistema" style="rounded=1;whiteSpace=wrap;html=1;arcSize=40;" vertex="1" parent="1">
          <mxGeometry x="120" y="520" width="120" height="40" as="geometry" />
        </mxCell>
        <mxCell id="dwrPpuVWPX9B_x9vy6d8-15" value="" style="edgeStyle=orthogonalEdgeStyle;html=1;verticalAlign=bottom;endArrow=open;endSize=8;rounded=0;entryX=0.5;entryY=0;entryDx=0;entryDy=0;" edge="1" parent="1" target="dwrPpuVWPX9B_x9vy6d8-18">
          <mxGeometry relative="1" as="geometry">
            <mxPoint x="180" y="620" as="targetPoint" />
            <mxPoint x="240" y="540" as="sourcePoint" />
          </mxGeometry>
        </mxCell>
        <mxCell id="dwrPpuVWPX9B_x9vy6d8-16" value="Continuar&lt;div&gt;Supervicion&lt;/div&gt;" style="rounded=1;whiteSpace=wrap;html=1;arcSize=40;" vertex="1" parent="1">
          <mxGeometry x="385" y="520" width="120" height="40" as="geometry" />
        </mxCell>
        <mxCell id="dwrPpuVWPX9B_x9vy6d8-17" value="" style="edgeStyle=orthogonalEdgeStyle;html=1;verticalAlign=bottom;endArrow=open;endSize=8;rounded=0;entryX=0.5;entryY=0;entryDx=0;entryDy=0;" edge="1" parent="1" source="dwrPpuVWPX9B_x9vy6d8-16" target="dwrPpuVWPX9B_x9vy6d8-18">
          <mxGeometry relative="1" as="geometry">
            <mxPoint x="445" y="620" as="targetPoint" />
          </mxGeometry>
        </mxCell>
        <mxCell id="dwrPpuVWPX9B_x9vy6d8-18" value="" style="ellipse;html=1;shape=endState;" vertex="1" parent="1">
          <mxGeometry x="310" y="650" width="30" height="30" as="geometry" />
        </mxCell>
      </root>
    </mxGraphModel>
  </diagram>
</mxfile>
